<svg id="Calque_1" data-name="Calque 1" xmlns="http://www.w3.org/2000/svg" xmlns:xlink="http://www.w3.org/1999/xlink" viewBox="0 0 308 81.53"><defs><style>.cls-1{fill:url(#Dégradé_sans_nom_20);}.cls-2{fill:url(#Dégradé_sans_nom_20-2);}.cls-3{fill:#00993c;}.cls-4{fill:url(#Dégradé_sans_nom_22);}.cls-5{fill:url(#Dégradé_sans_nom_22-2);}.cls-6{fill:#e86f8f;}.cls-7,.cls-8{fill:#333;}.cls-7{fill-rule:evenodd;}</style><linearGradient id="Dégradé_sans_nom_20" x1="246.65" y1="14.46" x2="246.65" y2="67.07" gradientUnits="userSpaceOnUse"><stop offset="0" stop-color="#f7d5dd"/><stop offset="1" stop-color="#e86f8f"/></linearGradient><linearGradient id="Dégradé_sans_nom_20-2" x1="286.47" y1="14.46" x2="286.47" y2="67.07" xlink:href="#Dégradé_sans_nom_20"/><linearGradient id="Dégradé_sans_nom_22" x1="60.03" y1="14.46" x2="60.03" y2="68.38" gradientUnits="userSpaceOnUse"><stop offset="0" stop-color="#cce3d4"/><stop offset="1" stop-color="#00993c"/></linearGradient><linearGradient id="Dégradé_sans_nom_22-2" x1="20.88" y1="14.46" x2="20.88" y2="68.38" xlink:href="#Dégradé_sans_nom_22"/></defs><title>TL_gradient</title><rect class="cls-1" x="244.04" y="14.46" width="5.22" height="52.61"/><rect class="cls-2" x="264.93" y="14.46" width="43.07" height="52.61"/><polygon class="cls-3" points="292.35 6.58 287.11 3.95 276.68 30.24 281.89 32.88 292.35 6.58"/><polygon class="cls-3" points="298.87 5.25 296.26 3.95 284.5 31.56 287.11 32.88 298.87 5.25"/><rect class="cls-4" x="57.41" y="14.46" width="5.24" height="53.92"/><rect class="cls-5" y="14.46" width="41.76" height="53.92"/><polygon class="cls-6" points="15.45 75.33 20.51 77.42 31.6 49.97 26.56 47.9 15.45 75.33"/><polygon class="cls-6" points="10.05 76.51 11.96 77.29 23.37 50.02 20.78 48.83 10.05 76.51"/><path class="cls-7" d="M53.5,80.21V2.63s7.1-.37,10.46,4c3,3.91,2.19,12.68,2.6,15.78h1.31v-21H31.33v21h1.3c.42-3.1.87-11.87,3.91-15.78,3.34-4.32,8.94-3.95,8.94-3.95h.19V80.21H41.76v1.32H57.41V80.21Z"/><path class="cls-7" d="M261,80.21V2.63h3.91V1.32H249.26V2.63h3.93V80.21h-3.93v1.32h30v-21H278s.09,7.65-1.31,10.51c-1.48,3.12-2.37,3.61-3.91,5.28a15.27,15.27,0,0,1-7.48,3.93Z"/><path class="cls-7" d="M86.13,80.21V2.63H90s5.86.25,9.15,4S101.8,21,101.8,21h1.31V1.32h-30V2.63H78.3V80.21H71.78v1.32h31.33v-21H101.8s0,13.14-2.61,15.79S90,80.21,90,80.21Zm0-40.75v2.61s5.65-.31,7.83,2.64c2.77,3.7,2.63,10.51,2.63,10.51h1.3V25h-1.3s.14,8.19-2.69,11.84S86.2,39.41,86.13,39.46Z"/><path class="cls-8" d="M191.85,57.87V80.21a1,1,0,0,0,1.3,0c.65-.51.8-2.63,2.61-2.63,3.53,0,6.27,4,11.74,4,6.4,0,13.06-7.25,13.06-17.1,0-10.37-6.79-19.86-13.06-30.24S197.07,17,197.07,10.53s4.83-9.21,9.13-9.21S216,4.89,216.65,21H218V0h-1.31s.82,2.63-1.3,2.63S212.34,0,206.2,0c-5.87,0-13.7,4-13.7,15.54S199,33.66,204.73,43.12s11.92,17,11.92,23.95c0,7.61-4.18,13.14-9.15,13.14s-8.89-2.56-11.56-8.63c-2.81-6.47-2-10.07-2.79-13.71C193,57.16,191.87,57.36,191.85,57.87Z"/><path class="cls-7" d="M172.26,2.63c1.23,0,10.46,1.61,10.46,19.73s-6.83,21-11.76,21a7.14,7.14,0,0,1-2.61-.52V2.63ZM168.35,44a12.22,12.22,0,0,0,3.91.67c8.16,0,17-8.35,17-22.35s-8.72-21-14.35-21H156.61V2.63h3.91V80.21h-3.91v0a1.25,1.25,0,0,1-1.31-1.29L141,1.32h-1.31l-7.84,52.6L121.37,1.32h-1.3L108.33,80.21h-3.92v1.32h17V80.21h-3.91L124,26.31l10.49,55.22h1.19l7.9-52.6,9.14,50a1.32,1.32,0,0,1-1.31,1.31h-2.61v1.32h23.48V80.21h-3.91Z"/></svg>