<svg id="Calque_1" data-name="Calque 1" xmlns="http://www.w3.org/2000/svg" viewBox="0 0 170 45"><defs><style>.cls-1{fill:#e86f8f;}.cls-2{fill:#00993c;}.cls-3{fill:#093;}.cls-4,.cls-5{fill:#333;}.cls-4{fill-rule:evenodd;}</style></defs><title>TL_solid</title><rect class="cls-1" x="135.18" y="7.5" width="2.73" height="30.01"/><rect class="cls-1" x="146.79" y="7.5" width="23.21" height="30.01"/><polygon class="cls-2" points="162 3.63 159.11 2.18 153.33 16.69 156.22 18.15 162 3.63"/><polygon class="cls-2" points="165.62 2.9 164.17 2.18 157.66 17.42 159.11 18.15 165.62 2.9"/><rect class="cls-3" x="32.09" y="7.5" width="2.73" height="30.01"/><rect class="cls-3" y="7.5" width="23.21" height="30.01"/><polygon class="cls-1" points="8.56 41.58 11.36 42.73 17.51 27.58 14.72 26.44 8.56 41.58"/><polygon class="cls-1" points="5.57 42.23 6.62 42.66 12.95 27.61 11.51 26.95 5.57 42.23"/><path class="cls-4" d="M29.65,44.27V1.45s3.93-.2,5.79,2.18c1.68,2.16,1.22,7,1.44,8.71h.73V.73H17.36V12.34h.72c.23-1.71.49-6.55,2.17-8.71A6.24,6.24,0,0,1,25.2,1.45h.11V44.27H23.14V45h8.68v-.73Z"/><path class="cls-4" d="M144.65,44.27V1.45h2.17V.73h-8.68v.72h2.17V44.27h-2.17V45h16.63V33.39h-.72s0,4.22-.72,5.8a8.83,8.83,0,0,1-2.17,2.91A8.51,8.51,0,0,1,147,44.27Z"/><path class="cls-4" d="M47.73,44.27V1.45H49.9s3.24.14,5.07,2.18,1.44,8,1.44,8h.73V.73H40.5v.72h2.89V44.27H39.78V45H57.14V33.39h-.73s0,7.25-1.44,8.71-5.07,2.17-5.07,2.17Zm0-22.49v1.44s3.13-.17,4.34,1.46c1.53,2,1.45,5.8,1.45,5.8h.72V13.79h-.72s.09,4.52-1.48,6.53S47.77,21.75,47.73,21.78Z"/><path class="cls-5" d="M106.32,31.94V44.27a.57.57,0,0,0,.72,0c.36-.28.44-1.45,1.44-1.45,2,0,3.48,2.18,6.51,2.18,3.54,0,7.24-4,7.24-9.44,0-5.72-3.77-11-7.24-16.69s-5.78-9.51-5.78-13.06A4.85,4.85,0,0,1,114.27.73c2.39,0,5.43,2,5.79,10.88h.72V0h-.72s.46,1.45-.73,1.45S117.67,0,114.27,0c-3.25,0-7.59,2.2-7.59,8.58s3.59,10,6.77,15.22,6.61,9.37,6.61,13.22c0,4.2-2.32,7.25-5.07,7.25s-4.93-1.41-6.4-4.76C107,35.94,107.49,34,107,31.94,107,31.55,106.32,31.66,106.32,31.94Z"/><path class="cls-4" d="M95.47,1.45c.67,0,5.78.89,5.78,10.89S97.47,24,94.74,24a3.85,3.85,0,0,1-1.44-.29V1.45ZM93.3,24.31a6.81,6.81,0,0,0,2.17.37c4.51,0,9.4-4.61,9.4-12.34S100,.73,96.91.73H86.79v.72H89V44.27H86.79a.69.69,0,0,1-.73-.71L78.11.73h-.72l-4.34,29L67.26.73h-.72L60,44.27H57.86V45h9.4v-.73H65.09l3.62-29.75L74.52,45h.66l4.38-29,5.06,27.58a.73.73,0,0,1-.73.72H82.45V45h13v-.73H93.3Z"/></svg>